<?xml version="1.0" encoding="UTF-8" standalone="no"?>
<svg
   xmlns:osb="http://www.openswatchbook.org/uri/2009/osb"
   xmlns:dc="http://purl.org/dc/elements/1.1/"
   xmlns:cc="http://creativecommons.org/ns#"
   xmlns:rdf="http://www.w3.org/1999/02/22-rdf-syntax-ns#"
   xmlns:svg="http://www.w3.org/2000/svg"
   xmlns="http://www.w3.org/2000/svg"
   xmlns:sodipodi="http://sodipodi.sourceforge.net/DTD/sodipodi-0.dtd"
   xmlns:inkscape="http://www.inkscape.org/namespaces/inkscape"
   sodipodi:docname="logo.svg"
   inkscape:version="1.0 (4035a4fb49, 2020-05-01)"
   id="svg8"
   version="1.1"
   viewBox="0 0 210 297"
   height="297mm"
   width="210mm">
  <defs
     id="defs2">
    <linearGradient
       osb:paint="solid"
       id="linearGradient3372">
      <stop
         id="stop3370"
         offset="0"
         style="stop-color:#1aff79;stop-opacity:1;" />
    </linearGradient>
    <linearGradient
       osb:paint="solid"
       id="linearGradient3313">
      <stop
         id="stop3311"
         offset="0"
         style="stop-color:#000000;stop-opacity:1;" />
    </linearGradient>
    <linearGradient
       osb:paint="solid"
       id="linearGradient3307">
      <stop
         id="stop3305"
         offset="0"
         style="stop-color:#000000;stop-opacity:1;" />
    </linearGradient>
    <linearGradient
       osb:paint="solid"
       id="linearGradient3293">
      <stop
         id="stop3291"
         offset="0"
         style="stop-color:#1aff79;stop-opacity:1;" />
    </linearGradient>
    <linearGradient
       osb:paint="solid"
       id="linearGradient2799">
      <stop
         id="stop2797"
         offset="0"
         style="stop-color:#1aff79;stop-opacity:1;" />
    </linearGradient>
    <filter
       height="1.0539618"
       y="-0.026980912"
       width="1.0540382"
       x="-0.027019118"
       id="filter3364"
       style="color-interpolation-filters:sRGB"
       inkscape:collect="always">
      <feGaussianBlur
         id="feGaussianBlur3366"
         stdDeviation="0.097027996"
         inkscape:collect="always" />
    </filter>
    <filter
       height="1.0106901"
       y="-0.0053450251"
       width="1.0130679"
       x="-0.0065339749"
       id="filter3430"
       style="color-interpolation-filters:sRGB"
       inkscape:collect="always">
      <feGaussianBlur
         id="feGaussianBlur3432"
         stdDeviation="0.24845314"
         inkscape:collect="always" />
    </filter>
  </defs>
  <sodipodi:namedview
     inkscape:window-maximized="1"
     inkscape:window-y="-8"
     inkscape:window-x="-8"
     inkscape:window-height="1057"
     inkscape:window-width="1920"
     inkscape:snap-page="false"
     inkscape:snap-nodes="false"
     inkscape:object-nodes="false"
     inkscape:snap-others="false"
     inkscape:snap-to-guides="false"
     inkscape:snap-grids="false"
     showgrid="false"
     inkscape:document-rotation="0"
     inkscape:current-layer="layer1"
     inkscape:document-units="mm"
     inkscape:cy="179.70836"
     inkscape:cx="136.56818"
     inkscape:zoom="4"
     inkscape:pageshadow="2"
     inkscape:pageopacity="0.0"
     borderopacity="1.0"
     bordercolor="#666666"
     pagecolor="#ffffff"
     id="base" />
  <metadata
     id="metadata5">
    <rdf:RDF>
      <cc:Work
         rdf:about="">
        <dc:format>image/svg+xml</dc:format>
        <dc:type
           rdf:resource="http://purl.org/dc/dcmitype/StillImage" />
        <dc:title></dc:title>
      </cc:Work>
    </rdf:RDF>
  </metadata>
  <g
     id="layer1"
     inkscape:groupmode="layer"
     inkscape:label="Layer 1">
    <rect
       y="25.722187"
       x="31.187759"
       height="37.074741"
       width="5.2916665"
       id="rect3360"
       style="opacity:1;fill:#fadc00;fill-opacity:1;fill-rule:evenodd;stroke:none;stroke-width:0;stroke-linejoin:bevel;stroke-miterlimit:4;stroke-dasharray:none;stroke-opacity:1" />
    <rect
       y="21.166666"
       x="31.185759"
       height="4.6963539"
       width="35.48925"
       id="rect3358"
       style="opacity:1;fill:#fadc00;fill-opacity:1;fill-rule:evenodd;stroke:none;stroke-width:0;stroke-linejoin:bevel;stroke-miterlimit:4;stroke-dasharray:none;stroke-opacity:1" />
    <path
       id="path3428"
       d="M 66.608853,23.8125 H 34.263541 v 38.893749 h 2.182813 V 25.863021 h 30.162499 z"
       style="fill:#ebcd00;fill-opacity:1;fill-rule:evenodd;stroke:none;stroke-width:0.264583px;stroke-linecap:butt;stroke-linejoin:miter;stroke-opacity:1" />
    <circle
       r="0.024976548"
       cy="37.797619"
       cx="48.002975"
       style="fill:#1aff79;stroke:#000000;stroke-width:0.264583"
       id="path835" />
    <g
       id="g3436">
      <path
         d="m 62.511684,34.319654 -2.993211,0.286281 -2.476951,-1.704695 -0.801697,-2.898026 1.248679,-2.735337 2.714785,-1.292755 2.910612,0.754723 1.744532,2.449056 -0.237834,2.99745 z"
         sodipodi:type="star"
         style="fill:#5757ff;fill-opacity:1;stroke:none;stroke-width:0.344003;stroke-linejoin:bevel;stroke-miterlimit:4;stroke-dasharray:none;stroke-opacity:1;filter:url(#filter3364)"
         id="path2941"
         sodipodi:sides="9"
         sodipodi:cx="60.621803"
         sodipodi:cy="30.350904"
         sodipodi:r1="4.3957505"
         sodipodi:r2="4.1306548"
         sodipodi:arg1="1.1263771"
         sodipodi:arg2="1.475443"
         inkscape:flatsided="true"
         inkscape:rounded="0"
         inkscape:randomized="0"
         inkscape:transform-center-x="0.055893305"
         inkscape:transform-center-y="-0.046440611"
         transform="matrix(0.76907967,0,0,0.76918422,13.661775,7.5656763)" />
      <path
         id="path2999"
         style="mix-blend-mode:normal;fill:#1aff79;fill-opacity:1;stroke:none;stroke-width:0.999999;stroke-linejoin:bevel;stroke-miterlimit:4;stroke-dasharray:none;stroke-opacity:1;filter:url(#filter3430)"
         d="m 209.39258,125.79688 c -0.29356,-0.0759 -0.75255,0.15987 -1.78516,0.91601 -0.76473,0.55996 -4.00334,2.85311 -7.19531,5.0957 -7.07665,4.97187 -11.19168,8.03757 -14.72656,10.97071 -16.85069,13.98222 -30.653,28.99523 -33.75586,36.71679 -0.12141,0.30209 -0.21051,0.5481 -0.28125,0.78516 -0.32496,0.3941 -2.42312,6.12428 -2.21289,8.72266 0.21575,2.66675 1.01225,4.36366 1.25586,4.83398 0.49766,1.43806 0.93962,1.93179 2.04687,2.48633 0.63666,0.31884 1.63533,0.70161 2.2207,0.84961 1.36679,0.34601 3.99723,0.34494 5.66602,-0.002 4.08361,-0.84882 11.86068,-4.0815 30.05664,-12.49415 11.11098,-5.13702 20.56636,-9.31449 20.72461,-9.15625 0.0299,0.0299 -0.66635,0.64703 -1.54883,1.37305 -4.59727,3.78218 -8.99231,8.45746 -16.01758,17.03906 -6.44344,7.87088 -9.81648,12.39483 -11.04687,14.81836 -0.80215,1.58003 -2.0218,4.95019 -2.47266,6.83399 -1.31601,5.49815 -1.31683,11.86443 -0.004,16.375 0.46033,1.58152 1.32979,3.51809 1.83984,4.09765 0.0822,0.0933 0.18589,0.17113 0.28711,0.22852 0.42228,0.54793 2.74106,1.00876 3.35937,1.02539 2.75785,0.0742 7.67262,-0.013 8.50977,0 0.26649,0.004 0.18874,-0.64707 -0.11914,-1.28516 -0.30788,-0.63809 -0.84554,-1.26345 -1.23242,-2.00195 -0.98472,-1.87969 -1.94163,-4.03078 -1.95313,-4.05664 -0.0517,-0.22476 -0.0896,-0.41824 -0.15429,-0.66406 -0.34394,-1.30608 -0.49316,-2.41089 -0.56836,-4.20117 -0.25535,-6.08059 1.14226,-10.433 4.99023,-15.54297 4.84873,-6.43892 12.255,-15.27056 16.20313,-19.32032 4.71055,-4.8318 6.04775,-5.88824 19.37109,-15.31445 2.6122,-1.84812 3.84561,-2.86172 5.41211,-4.44726 l 2.0293,-2.05274 -0.004,-0.0508 c 0.18276,-0.27459 3.37661,-5.12361 2.08789,-7.05664 -0.66291,-0.99435 -1.40485,-1.31009 -2.39258,-1.68555 -0.81042,-0.30804 -2.16536,-0.34416 -3.22656,-0.33008 -1.74574,-0.19138 -6.40807,0.0323 -8.35352,0.44727 -7.52246,1.60439 -15.45193,4.24996 -25.19531,8.4082 -4.11271,1.75521 -6.47153,2.81596 -17.58008,7.90235 -12.02683,5.50685 -18.08264,8.16111 -19.66406,8.60547 v 0.008 c 0,0 -0.81368,0.23951 -2.25,0.50781 -1.43631,0.26831 -0.0712,-1.68196 0.99414,-3.20508 l 0.10352,0.0801 -0.0957,-0.0977 0.83985,-1.23046 c 2.85038,-4.17747 7.43523,-9.42777 13.71875,-15.70704 9.70667,-9.7001 16.83557,-15.61089 29.92578,-24.81445 6.87644,-4.83474 9.10442,-6.47893 9.23242,-6.8125 0.052,-0.13546 -0.12434,-0.58502 -0.39258,-1 -0.65786,-1.01777 -6.14988,-6.46933 -6.64648,-6.59765 z"
         transform="scale(0.26458333)" />
    </g>
    <path
       d="m 66.72727,25.66993 c 0.05349,-0.182092 0.0414,-0.370549 0.02482,-0.556754 2.64e-4,-0.08146 -0.107138,-0.362898 -0.08276,-0.42493 0.01593,-0.0041 0.02998,-0.114683 0.03158,-0.123307 0.05801,-0.325602 -0.40246,-0.40764 -0.46047,-0.08204 v 0 c -0.01016,0.06096 -0.02646,0.12025 -0.03819,0.181014 -0.0021,0.168639 0.04232,0.328414 0.08399,0.490974 0.01162,0.128822 0.02705,0.259891 -0.0087,0.386548 -0.09086,0.318004 0.358868,0.446497 0.449726,0.128493 z"
       id="path3392"
       style="opacity:1;fill:#000000;fill-opacity:1;fill-rule:evenodd;stroke:none;stroke-width:0;stroke-linejoin:bevel;stroke-miterlimit:4;stroke-dasharray:none;stroke-opacity:1" />
    <path
       d="m 61.706162,25.638756 c 0.0043,-0.155533 0.01577,-0.312194 0.03737,-0.466419 0.01405,-0.12674 0.05221,-0.254462 0.04148,-0.383149 -0.0034,-0.04116 -0.01286,-0.0816 -0.01929,-0.122406 -0.008,-0.03175 -0.01603,-0.0635 -0.02405,-0.09525 -0.08253,-0.320268 -0.535453,-0.203558 -0.452927,0.116709 v 0 c 0.0058,0.02205 0.01169,0.0441 0.01754,0.06615 0.03482,0.115636 -0.01736,0.238581 -0.02622,0.355137 -0.02315,0.175252 -0.03803,0.352543 -0.04161,0.529226 0,0.330729 0.467723,0.330729 0.467723,0 z"
       id="path3404"
       style="opacity:1;fill:#000000;fill-opacity:1;fill-rule:evenodd;stroke:none;stroke-width:0;stroke-linejoin:bevel;stroke-miterlimit:4;stroke-dasharray:none;stroke-opacity:1" />
    <path
       d="m 51.784976,25.586389 c -0.0067,-0.152179 0.0062,-0.302983 0.02019,-0.454277 0.01646,-0.159562 0.02643,-0.31872 0.01045,-0.478519 -0.0075,-0.06025 -0.01331,-0.120632 -0.01842,-0.181115 -0.02809,-0.329534 -0.494123,-0.289805 -0.466029,0.03973 v 0 c 0.0055,0.06342 0.01138,0.126779 0.01926,0.189958 0.01434,0.129104 2.65e-4,0.257955 -0.01101,0.38703 -0.01524,0.165504 -0.0286,0.330779 -0.02217,0.497194 0,0.330729 0.46772,0.330729 0.46772,0 z"
       id="path3406"
       style="opacity:1;fill:#000000;fill-opacity:1;fill-rule:evenodd;stroke:none;stroke-width:0;stroke-linejoin:bevel;stroke-miterlimit:4;stroke-dasharray:none;stroke-opacity:1" />
    <path
       d="m 41.837812,25.671829 c 0.02204,-0.155753 0.03123,-0.312884 0.03805,-0.469915 0.005,-0.135746 0.0055,-0.271593 0.0058,-0.407413 2.9e-5,-0.08703 3.2e-5,-0.04364 -8e-6,-0.130151 -1.48e-4,-0.330729 -0.46787,-0.330517 -0.467719,2.12e-4 v 0 c 3.7e-5,0.0859 3.4e-5,0.04288 7e-6,0.129064 -2.4e-4,0.129378 -7.93e-4,0.258782 -0.0053,0.388094 -0.0061,0.141659 -0.01405,0.283437 -0.03378,0.423963 -0.04677,0.327406 0.416248,0.393551 0.463021,0.06615 z"
       id="path3410"
       style="opacity:1;fill:#000000;fill-opacity:1;fill-rule:evenodd;stroke:none;stroke-width:0;stroke-linejoin:bevel;stroke-miterlimit:4;stroke-dasharray:none;stroke-opacity:1" />
    <path
       d="m 46.812758,25.633161 c 0,-0.164749 0,-0.329498 0,-0.494248 0.01431,-0.160027 0.02887,-0.319949 0.03793,-0.480382 0.01855,-0.330208 -0.448435,-0.356443 -0.466985,-0.02624 v 0 c -0.0095,0.169181 -0.02703,0.33761 -0.03866,0.506617 0,0.16475 0,0.329499 0,0.494249 0,0.330729 0.467722,0.330729 0.467722,0 z"
       id="path3424"
       style="opacity:1;fill:#000000;fill-opacity:1;fill-rule:evenodd;stroke:none;stroke-width:0;stroke-linejoin:bevel;stroke-miterlimit:4;stroke-dasharray:none;stroke-opacity:1" />
    <path
       d="m 56.820262,25.679934 c 0.01146,-0.179324 -0.01159,-0.354059 -0.04702,-0.529308 -0.02892,-0.13255 -0.03794,-0.267753 -0.04365,-0.40291 -0.0024,-0.08196 -0.0013,-0.04073 -0.0028,-0.123689 -0.0054,-0.330685 -0.47308,-0.323018 -0.467659,0.0077 v 0 c 0.0016,0.09092 5.3e-4,0.04558 0.0031,0.136024 0.0069,0.159635 0.01871,0.319242 0.05254,0.475815 0.03044,0.149808 0.04901,0.28197 0.0377,0.436402 0,0.330729 0.467722,0.330729 0.467722,0 z"
       id="path3426"
       style="opacity:1;fill:#000000;fill-opacity:1;fill-rule:evenodd;stroke:none;stroke-width:0;stroke-linejoin:bevel;stroke-miterlimit:4;stroke-dasharray:none;stroke-opacity:1" />
  </g>
</svg>
