<?xml version="1.0" encoding="utf-8"?>
<svg id="master-artboard" viewBox="0 0 1124.7138671875 712.75146484375" version="1.1" xmlns="http://www.w3.org/2000/svg" x="0px" y="0px" width="1124.7138671875px" height="712.75146484375px" enable-background="new 0 0 1400 980" xmlns:xlink="http://www.w3.org/1999/xlink"><rect id="ee-background" x="0" y="0" width="1124.7138671875" height="712.75146484375" style="fill: white; fill-opacity: 0; pointer-events: none;"/>

<g transform="matrix(1, 0, 0, 1, -130.61021423339844, -134.6289939880371)">
			
				<image overflow="visible" opacity="0.1" width="3122" height="2937" transform="matrix(0.24 0 0 0.24 326.4014 138.6123)" xlink:href="EC45594CCB6B4E2F.png">
			</image>
			<g>
				<path fill="#F1F2F2" d="M979.012,444.503c-90.697-5.316-3.516-110.714-3.516-110.714c35.168-41.021,13.982-76.302-3.723-95.049&#10;&#9;&#9;&#9;&#9;&#9;c-5.336-4.959-10.83-9.754-16.479-14.379v-0.002c-85.703-70.166-206.338-101.254-328.521-73.854&#10;&#9;&#9;&#9;&#9;&#9;C424.302,195.909,294.252,384.712,336.297,572.21c42.047,187.499,240.267,302.688,442.736,257.285&#10;&#9;&#9;&#9;&#9;&#9;c152.752-34.254,264.277-150.129,291.785-285.482C1081.504,435.897,979.012,444.503,979.012,444.503z M826.762,345.438&#10;&#9;&#9;&#9;&#9;&#9;c-46.953-8.454-80.006-36.135-73.824-61.828c6.18-25.691,49.252-39.663,96.203-31.209c46.953,8.455,80.006,36.135,73.824,61.826&#10;&#9;&#9;&#9;&#9;&#9;C916.787,339.92,873.713,353.893,826.762,345.438z" style="fill: rgb(247, 143, 101);"/>
			</g>
		</g><g transform="matrix(1, 0, 0, 1, -130.61021423339844, -134.6289939880371)">
			
				<image overflow="visible" opacity="0.1" width="2723" height="2738" transform="matrix(0.24 0 0 0.24 361.3232 166.1045)" xlink:href="EC45594CCB6B4E28.png">
			</image>
			<g>
				<g>
					
						<path d="M 711.99398 245.660004 A 74.540001 74.540001 0 0 1 637.453979 320.200005 A 74.540001 74.540001 0 0 1 562.913979 245.660004 A 74.540001 74.540001 0 0 1 637.453979 171.120003 A 74.540001 74.540001 0 0 1 711.99398 245.660004 Z" fill="#EA212E" stroke="#E6E7E8" stroke-width="6" stroke-linejoin="round" stroke-miterlimit="10"/>
					
						<path d="M 566.839005 338.631012 A 74.541 74.541 0 0 1 492.298004 413.172012 A 74.541 74.541 0 0 1 417.757004 338.631012 A 74.541 74.541 0 0 1 492.298004 264.090012 A 74.541 74.541 0 0 1 566.839005 338.631012 Z" fill="#F17630" stroke="#E6E7E8" stroke-width="6" stroke-linejoin="round" stroke-miterlimit="10"/>
					
						<path d="M 515.404015 503.154999 A 74.540001 74.540001 0 0 1 440.864014 577.695 A 74.540001 74.540001 0 0 1 366.324013 503.154999 A 74.540001 74.540001 0 0 1 440.864014 428.614998 A 74.540001 74.540001 0 0 1 515.404015 503.154999 Z" fill="#FFC830" stroke="#E6E7E8" stroke-width="6" stroke-linejoin="round" stroke-miterlimit="10"/>
					
						<path d="M 581.757011 662.247986 A 74.540001 74.540001 0 0 1 507.21701 736.787987 A 74.540001 74.540001 0 0 1 432.67701 662.247986 A 74.540001 74.540001 0 0 1 507.21701 587.707985 A 74.540001 74.540001 0 0 1 581.757011 662.247986 Z" fill="#94C662" stroke="#E6E7E8" stroke-width="6" stroke-linejoin="round" stroke-miterlimit="10"/>
					
						<path d="M 734.850998 741.471008 A 74.541 74.541 0 0 1 660.309998 816.012009 A 74.541 74.541 0 0 1 585.768997 741.471008 A 74.541 74.541 0 0 1 660.309998 666.930008 A 74.541 74.541 0 0 1 734.850998 741.471008 Z" fill="#1AAA98" stroke="#E6E7E8" stroke-width="6" stroke-linejoin="round" stroke-miterlimit="10"/>
					<path fill="#189AB8" stroke="#E6E7E8" stroke-width="6" stroke-linejoin="round" stroke-miterlimit="10" d="M765.74,743.956&#10;&#9;&#9;&#9;&#9;&#9;&#9;c22.203,34.666,68.305,44.768,102.971,22.565c34.67-22.205,44.771-68.307,22.566-102.974&#10;&#9;&#9;&#9;&#9;&#9;&#9;c-22.203-34.665-68.305-44.767-102.971-22.563S743.537,709.291,765.74,743.956z"/>
					
						<path d="M 1007.652 566.742981 A 74.540001 74.540001 0 0 1 933.112 641.282982 A 74.540001 74.540001 0 0 1 858.571999 566.742981 A 74.540001 74.540001 0 0 1 933.112 492.20298 A 74.540001 74.540001 0 0 1 1007.652 566.742981 Z" fill="#7959C6" stroke="#E6E7E8" stroke-width="6" stroke-linejoin="round" stroke-miterlimit="10"/>
				</g>
			</g>
		</g><path fill="#D31A2C" d="M621.897,174.84c-20.274,4.547-36.625,17.213-46.403,33.804c9.949-14.63,25.264-25.663,43.892-29.84&#10;&#9;&#9;&#9;c38.903-8.724,77.513,15.74,86.238,54.644c4.174,18.624,0.742,37.18-8.239,52.423c10.825-15.926,15.293-36.115,10.747-56.386&#10;&#9;&#9;&#9;C699.411,190.581,660.8,166.116,621.897,174.84z" transform="matrix(1, 0, 0, 1, -130.61021423339844, -134.6289939880371)"/><path fill="#E26223" d="M476.194,268.452c-20.274,4.547-36.624,17.214-46.401,33.804c9.948-14.631,25.263-25.663,43.891-29.84&#10;&#9;&#9;&#9;c38.903-8.725,77.513,15.739,86.236,54.643c4.177,18.625,0.744,37.179-8.236,52.423c10.825-15.925,15.294-36.114,10.749-56.385&#10;&#9;&#9;&#9;C553.708,284.193,515.097,259.728,476.194,268.452z" transform="matrix(1, 0, 0, 1, -130.61021423339844, -134.6289939880371)"/><path fill="#E8B128" d="M425.12,432.555c-20.274,4.546-36.624,17.213-46.402,33.804c9.949-14.631,25.264-25.663,43.891-29.84&#10;&#9;&#9;&#9;c38.904-8.725,77.513,15.738,86.237,54.643c4.178,18.624,0.744,37.179-8.236,52.423c10.824-15.926,15.294-36.115,10.749-56.386&#10;&#9;&#9;&#9;C502.633,448.296,464.023,423.831,425.12,432.555z" transform="matrix(1, 0, 0, 1, -130.61021423339844, -134.6289939880371)"/><path fill="#80AF4A" d="M491.67,591.622c-20.274,4.545-36.624,17.213-46.401,33.803c9.948-14.63,25.262-25.66,43.89-29.839&#10;&#9;&#9;&#9;c38.904-8.726,77.514,15.737,86.238,54.644c4.177,18.623,0.744,37.178-8.238,52.421c10.825-15.926,15.295-36.115,10.749-56.385&#10;&#9;&#9;&#9;C569.184,607.362,530.575,582.896,491.67,591.622z" transform="matrix(1, 0, 0, 1, -130.61021423339844, -134.6289939880371)"/><path fill="#179986" d="M644.691,671.042c-20.275,4.545-36.625,17.213-46.403,33.803c9.948-14.631,25.263-25.661,43.891-29.839&#10;&#9;&#9;&#9;c38.903-8.726,77.515,15.737,86.237,54.642c4.176,18.626,0.744,37.179-8.238,52.423c10.826-15.926,15.295-36.116,10.75-56.386&#10;&#9;&#9;&#9;C722.203,686.782,683.594,662.315,644.691,671.042z" transform="matrix(1, 0, 0, 1, -130.61021423339844, -134.6289939880371)"/><path fill="#108699" d="M812.664,633.372c-20.275,4.547-36.625,17.212-46.404,33.804c9.949-14.631,25.264-25.663,43.895-29.841&#10;&#9;&#9;&#9;c38.902-8.724,77.512,15.74,86.234,54.644c4.178,18.624,0.744,37.18-8.236,52.421c10.826-15.924,15.295-36.112,10.748-56.384&#10;&#9;&#9;&#9;C890.176,649.11,851.566,624.647,812.664,633.372z" transform="matrix(1, 0, 0, 1, -130.61021423339844, -134.6289939880371)"/><path fill="#634BAA" d="M917.334,496.667c-20.273,4.545-36.625,17.213-46.404,33.805c9.949-14.632,25.266-25.664,43.893-29.842&#10;&#9;&#9;&#9;c38.904-8.724,77.514,15.74,86.238,54.644c4.178,18.622,0.742,37.179-8.238,52.422c10.824-15.927,15.293-36.113,10.75-56.384&#10;&#9;&#9;&#9;C994.846,512.407,956.238,487.943,917.334,496.667z" transform="matrix(1, 0, 0, 1, -130.61021423339844, -134.6289939880371)"/><path d="M 326.438995 381.372009 A 27.319 274.701996 0 0 1 299.119995 656.074005 A 27.319 274.701996 0 0 1 271.800995 381.372009 A 27.319 274.701996 0 0 1 299.119995 106.670013 A 27.319 274.701996 0 0 1 326.438995 381.372009 Z" transform="matrix(0.815500020980835, -0.5788000226020813, 0.5788000226020813, 0.815500020980835, -296.143310546875, 108.84891510009766)" fill="#414042"/><path fill="#D1D3D4" d="M340.124,488.902c63.169,80.801,113.819,132.983,124.373,125.494&#10;&#9;&#9;&#9;c10.554-7.49-21.986-72.525-77.408-158.825L340.124,488.902z" transform="matrix(1, 0, 0, 1, -130.61021423339844, -134.6289939880371)"/><path fill="#E6E7E8" d="M391.589,453.973c1.802,2.54,1.205,6.057-1.334,7.859l-45.265,32.125c-2.54,1.802-6.058,1.204-7.86-1.334&#10;&#9;&#9;&#9;l0,0c-1.802-2.539-1.204-6.058,1.335-7.861l45.265-32.124C386.269,450.836,389.787,451.433,391.589,453.973L391.589,453.973z" transform="matrix(1, 0, 0, 1, -130.61021423339844, -134.6289939880371)"/><path fill="#3C2415" d="M500.36,596.844l-0.053,0.037c-12.752-17.033-36.826-20.891-54.277-8.505&#10;&#9;&#9;&#9;c-17.452,12.385-21.756,36.383-9.888,54.043l-0.052,0.037c15.579,22.677,38.354,33.719,55.542,39.057l0,0&#10;&#9;&#9;&#9;c10.651,3.272,19.671,21.253,19.671,21.253c1.706-4.292,3.237-10.807,4.43-16.847C517.08,680.727,527.978,634.526,500.36,596.844z&#10;&#9;&#9;&#9;" transform="matrix(1, 0, 0, 1, -130.61021423339844, -134.6289939880371)"/>
</svg>